<?xml version="1.0" encoding="utf-8"?>
<!-- Generator: Adobe Illustrator 23.0.3, SVG Export Plug-In . SVG Version: 6.00 Build 0)  -->
<svg version="1.1" id="Layer_1" xmlns="http://www.w3.org/2000/svg" xmlns:xlink="http://www.w3.org/1999/xlink" x="0px" y="0px"
	 viewBox="0 0 100 100" style="enable-background:new 0 0 100 100;" xml:space="preserve">
<style type="text/css">
	.st0{fill:#0060be;}
</style>
<g id="XMLID_527_">
	<rect id="XMLID_358_" x="-36.1" y="46.9" class="st0" width="6.4" height="13.1"/>
	<polygon id="XMLID_357_" class="st0" points="-19.9,68.2 -22.2,71.5 -50.9,48.1 -48.6,44.8 	"/>
	<polygon id="XMLID_356_" class="st0" points="-48.6,44.8 -46.2,48.1 -75.1,71.2 -77.5,67.9 	"/>
	<path id="XMLID_528_" class="st0" d="M-48.8,54l-21.7,16.4v25.4h7V75.3h9.4v20.4h27V70.4L-48.8,54z M-32.5,87.4H-47v-12h14.5V87.4z
		"/>
</g>
<g id="XMLID_499_">
	<polygon id="XMLID_339_" class="st0" points="203,28.2 200.4,31.4 168.4,8.2 171.1,5 	"/>
	<polygon id="XMLID_338_" class="st0" points="171.1,5 173.7,8.3 141.5,31.2 138.9,27.9 	"/>
	<rect id="XMLID_337_" x="141.2" y="78.1" class="st0" width="59.9" height="6.9"/>
	<path id="XMLID_500_" class="st0" d="M171,14.2l-24.1,17.2v51.2h48.2V31.4L171,14.2z M168.6,78H153V55.4h15.5V78z M168.6,49.8H153
		V35.9h15.5V49.8z M173.7,35.7h15.5v13.9h-15.5V35.7z M189.3,69.2h-15.5V55.4h15.5V69.2z"/>
</g>
<g id="XMLID_1_">
	<polygon id="XMLID_10_" class="st0" points="81.4,25.2 78.8,28.5 46.9,5.3 49.5,2 	"/>
	<polygon id="XMLID_9_" class="st0" points="49.5,2 52.1,5.3 19.9,28.2 17.3,24.9 	"/>
	<rect id="XMLID_8_" x="19.6" y="92.1" class="st0" width="59.9" height="6.9"/>
	<path id="XMLID_2_" class="st0" d="M49.4,11.2L25.3,28.4v64.8h48.2V28.4L49.4,11.2z M47,92H31.5V69.4H47V92z M47,46.8H31.5V32.9H47
		V46.8z M52.1,32.8h15.5v13.9H52.1V32.8z M67.8,83.2H52.2V69.4h15.5V83.2z M47,65.5H31.5V51.6H47V65.5z M52.1,51.4h15.5v13.9H52.1
		V51.4z"/>
</g>
</svg>
