<?xml version="1.0" encoding="utf-8"?>
<!-- Generator: Adobe Illustrator 23.0.3, SVG Export Plug-In . SVG Version: 6.00 Build 0)  -->
<svg version="1.1" id="Layer_1" xmlns="http://www.w3.org/2000/svg" xmlns:xlink="http://www.w3.org/1999/xlink" x="0px" y="0px"
	 viewBox="0 0 100 100" style="enable-background:new 0 0 100 100;" xml:space="preserve">
<style type="text/css">
	.st0{fill:#0060be;}
</style>
<g id="XMLID_527_">
	<rect id="XMLID_358_" x="62.9" y="49.9" class="st0" width="6.4" height="13.1"/>
	<polygon id="XMLID_357_" class="st0" points="79.1,71.2 76.8,74.5 48.1,51.1 50.4,47.8 	"/>
	<polygon id="XMLID_356_" class="st0" points="50.4,47.8 52.8,51.1 23.9,74.2 21.5,70.9 	"/>
	<path id="XMLID_528_" class="st0" d="M50.2,57L28.5,73.4v25.4h7V78.3h9.4v20.4h27V73.4L50.2,57z M66.5,90.4H52v-12h14.5V90.4z"/>
</g>
<g id="XMLID_499_">
	<polygon id="XMLID_339_" class="st0" points="203,28.2 200.4,31.4 168.4,8.2 171.1,5 	"/>
	<polygon id="XMLID_338_" class="st0" points="171.1,5 173.7,8.3 141.5,31.2 138.9,27.9 	"/>
	<rect id="XMLID_337_" x="141.2" y="78.1" class="st0" width="59.9" height="6.9"/>
	<path id="XMLID_500_" class="st0" d="M171,14.2l-24.1,17.2v51.2h48.2V31.4L171,14.2z M168.6,78H153V55.4h15.5V78z M168.6,49.8H153
		V35.9h15.5V49.8z M173.7,35.7h15.5v13.9h-15.5V35.7z M189.3,69.2h-15.5V55.4h15.5V69.2z"/>
</g>
<g id="XMLID_1_">
	<polygon id="XMLID_10_" class="st0" points="-23.6,-45.8 -26.2,-42.5 -58.1,-65.7 -55.5,-69 	"/>
	<polygon id="XMLID_9_" class="st0" points="-55.5,-69 -52.9,-65.7 -85.1,-42.8 -87.7,-46.1 	"/>
	<rect id="XMLID_8_" x="-85.4" y="21.1" class="st0" width="59.9" height="6.9"/>
	<path id="XMLID_2_" class="st0" d="M-55.6-59.8l-24.1,17.2v64.8h48.2v-64.8L-55.6-59.8z M-58,21h-15.5V-1.6H-58V21z M-58-24.2
		h-15.5v-13.9H-58V-24.2z M-52.9-38.2h15.5v13.9h-15.5V-38.2z M-37.2,12.2h-15.5V-1.6h15.5V12.2z M-58-5.5h-15.5v-13.9H-58V-5.5z
		 M-52.9-19.6h15.5v13.9h-15.5V-19.6z"/>
</g>
</svg>
