<?xml version="1.0" encoding="utf-8"?>
<!-- Generator: Adobe Illustrator 23.0.3, SVG Export Plug-In . SVG Version: 6.00 Build 0)  -->
<svg version="1.1" id="Layer_1" xmlns="http://www.w3.org/2000/svg" xmlns:xlink="http://www.w3.org/1999/xlink" x="0px" y="0px"
	 viewBox="0 0 100 100" style="enable-background:new 0 0 100 100;" xml:space="preserve">
<style type="text/css">
	.st0{fill:#0060be;}
</style>
<g id="XMLID_527_">
	<rect id="XMLID_358_" x="-36.1" y="46.9" class="st0" width="6.4" height="13.1"/>
	<polygon id="XMLID_357_" class="st0" points="-19.9,68.2 -22.2,71.5 -50.9,48.1 -48.6,44.8 	"/>
	<polygon id="XMLID_356_" class="st0" points="-48.6,44.8 -46.2,48.1 -75.1,71.2 -77.5,67.9 	"/>
	<path id="XMLID_528_" class="st0" d="M-48.8,54l-21.7,16.4v25.4h7V75.3h9.4v20.4h27V70.4L-48.8,54z M-32.5,87.4H-47v-12h14.5V87.4z
		"/>
</g>
<g id="XMLID_499_">
	<polygon id="XMLID_339_" class="st0" points="82,42.2 79.4,45.4 47.4,22.2 50.1,19 	"/>
	<polygon id="XMLID_338_" class="st0" points="50.1,19 52.7,22.3 20.5,45.2 17.9,41.9 	"/>
	<rect id="XMLID_337_" x="20.2" y="92.1" class="st0" width="59.9" height="6.9"/>
	<path id="XMLID_500_" class="st0" d="M50,28.2L25.8,45.4v51.2h48.2V45.4L50,28.2z M47.6,92H32V69.4h15.5V92z M47.6,63.8H32V49.9
		h15.5V63.8z M52.7,49.7h15.5v13.9H52.7V49.7z M68.3,83.2H52.8V69.4h15.5V83.2z"/>
</g>
<g id="XMLID_1_">
	<polygon id="XMLID_10_" class="st0" points="-28.6,-35.8 -31.2,-32.5 -63.1,-55.7 -60.5,-59 	"/>
	<polygon id="XMLID_9_" class="st0" points="-60.5,-59 -57.9,-55.7 -90.1,-32.8 -92.7,-36.1 	"/>
	<rect id="XMLID_8_" x="-90.4" y="31.1" class="st0" width="59.9" height="6.9"/>
	<path id="XMLID_2_" class="st0" d="M-60.6-49.8l-24.1,17.2v64.8h48.2v-64.8L-60.6-49.8z M-63,31h-15.5V8.4H-63V31z M-63-14.2h-15.5
		v-13.9H-63V-14.2z M-57.9-28.2h15.5v13.9h-15.5V-28.2z M-42.2,22.2h-15.5V8.4h15.5V22.2z M-63,4.5h-15.5V-9.4H-63V4.5z M-57.9-9.6
		h15.5V4.3h-15.5V-9.6z"/>
</g>
</svg>
