<svg height="512" viewBox="0 0 58 57" width="512" xmlns="http://www.w3.org/2000/svg" fill="#0060be"><g id="016---Money-Growth"><path id="Shape" d="m22 42.215v1.785c0 1.416 2.993 3 7 3s7-1.584 7-3v-1.785c-3.508 2.385-10.493 2.385-14 0z"/><path id="Shape" d="m36 32.215c-3.508 2.385-10.493 2.384-14 0v1.785c0 1.416 2.993 3 7 3s7-1.584 7-3z"/><ellipse id="Oval" cx="29" cy="29" rx="7" ry="3"/><path id="Shape" d="m36 37.215c-3.508 2.385-10.493 2.384-14 0v1.785c0 1.416 2.993 3 7 3s7-1.584 7-3z"/><path id="Shape" d="m57 32.215c-3.508 2.385-10.493 2.384-14 0v1.785c0 1.416 2.993 3 7 3s7-1.584 7-3z"/><path id="Shape" d="m57 27.215c-3.508 2.385-10.493 2.384-14 0v1.785c0 1.416 2.993 3 7 3s7-1.584 7-3z"/><ellipse id="Oval" cx="50" cy="24" rx="7" ry="3"/><path id="Shape" d="m57 37.215c-3.508 2.385-10.493 2.384-14 0v1.785c0 1.416 2.993 3 7 3s7-1.584 7-3z"/><path id="Shape" d="m43 42.215v1.785c0 1.416 2.993 3 7 3s7-1.584 7-3v-1.785c-3.508 2.385-10.493 2.385-14 0z"/><path id="Shape" d="m15 37.215c-3.508 2.385-10.493 2.384-14 0v1.785c0 1.416 2.993 3 7 3s7-1.584 7-3z"/><path id="Shape" d="m1 42.215v1.785c0 1.416 2.993 3 7 3s7-1.584 7-3v-1.785c-3.508 2.385-10.493 2.385-14 0z"/><ellipse id="Oval" cx="8" cy="34" rx="7" ry="3"/><path id="Shape" d="m42.351 3.716-11.058-3.616c-1.655-.537-2.888 1.231-2.046 2.933l1.311 2.646-20.315 13.67c-.81913664.5551802-1.10229297 1.6300706-.66298538 2.5167604.43930758.8866898 1.46603258 1.3126037 2.40398538.9972396l23.187-7.871 1.31 2.646c.843 1.7 3 1.793 3.573.151l3.825-10.989c.3919997-1.27078153-.2794743-2.62603392-1.528-3.084z"/><path id="Shape" d="m57 51c-.5522847 0-1 .4477153-1 1v1h-5c0-.5522847-.4477153-1-1-1s-1 .4477153-1 1h-5v-1c0-.5522847-.4477153-1-1-1s-1 .4477153-1 1v1h-5c0-.5522847-.4477153-1-1-1s-1 .4477153-1 1h-5v-1c0-.5522847-.4477153-1-1-1s-1 .4477153-1 1v1h-5c0-.5522847-.4477153-1-1-1s-1 .4477153-1 1h-5v-1c0-.5522847-.4477153-1-1-1s-1 .4477153-1 1v1h-5c0-.5522847-.44771525-1-1-1s-1 .4477153-1 1h-5v-1c0-.5522847-.44771525-1-1-1s-1 .4477153-1 1v4c0 .5522847.44771525 1 1 1s1-.4477153 1-1v-1h5c0 .5522847.44771525 1 1 1s1-.4477153 1-1h5v1c0 .5522847.4477153 1 1 1s1-.4477153 1-1v-1h5c0 .5522847.4477153 1 1 1s1-.4477153 1-1h5v1c0 .5522847.4477153 1 1 1s1-.4477153 1-1v-1h5c0 .5522847.4477153 1 1 1s1-.4477153 1-1h5v1c0 .5522847.4477153 1 1 1s1-.4477153 1-1v-1h5c0 .5522847.4477153 1 1 1s1-.4477153 1-1h5v1c0 .5522847.4477153 1 1 1s1-.4477153 1-1v-4c0-.5522847-.4477153-1-1-1z"/></g></svg>