<svg fill="#0060be" height="512" viewBox="0 0 64 64" width="512" xmlns="http://www.w3.org/2000/svg"><path d="m56 52h-15a1 1 0 0 0 0 2h15a1 1 0 0 0 0-2z"/><path d="m61 52h-1a1 1 0 0 0 0 2h1a1 1 0 0 0 0-2z"/><path d="m25 22a1 1 0 0 0 1-1v-12a1 1 0 0 0 -2 0v12a1 1 0 0 0 1 1z"/><path d="m25 6a1 1 0 0 0 1-1v-1a1 1 0 0 0 -2 0v1a1 1 0 0 0 1 1z"/><path d="m42 30h6v6h-6z"/><path d="m42 22h6v6h-6z"/><path d="m60 7a3 3 0 0 0 -3-3h-24a3 3 0 0 0 -3 3v38a3 3 0 0 0 3 3h24a3 3 0 0 0 3-3zm-2 38a1 1 0 0 1 -1 1h-24a1 1 0 0 1 -1-1v-24a1 1 0 0 1 1-1h24a1 1 0 0 1 1 1zm0-30a1 1 0 0 1 -1 1h-24a1 1 0 0 1 -1-1v-8a1 1 0 0 1 1-1h24a1 1 0 0 1 1 1z"/><circle cx="21" cy="44" r="5"/><path d="m34 8h22v6h-22z"/><path d="m50 22h6v6h-6z"/><path d="m50 37v7h6v-14h-6z"/><path d="m34 30h6v6h-6z"/><path d="m34 38h6v6h-6z"/><path d="m24 61v-4.63a1 1 0 0 1 .7-.953 12.323 12.323 0 0 0 1.776-.731 1 1 0 0 1 1.154.187l3.27 3.273 4.246-4.246-3.273-3.273a1 1 0 0 1 -.282-.854 4.992 4.992 0 0 1 -3.591-4.773v-1a7 7 0 1 1 -7-7 7.008 7.008 0 0 1 7 7v-11.246l-.373.373a1 1 0 0 1 -1.154.187 12.323 12.323 0 0 0 -1.776-.731 1 1 0 0 1 -.7-.953v-4.63h-5.997v4.63a1 1 0 0 1 -.7.953 12.323 12.323 0 0 0 -1.776.731 1 1 0 0 1 -1.154-.187l-3.27-3.273-4.246 4.246 3.273 3.273a1 1 0 0 1 .187 1.154 12.323 12.323 0 0 0 -.731 1.773 1 1 0 0 1 -.953.7h-4.63v6h4.63a1 1 0 0 1 .953.7 12.323 12.323 0 0 0 .731 1.776 1 1 0 0 1 -.187 1.154l-3.273 3.27 4.246 4.246 3.273-3.273a1 1 0 0 1 1.154-.187 12.323 12.323 0 0 0 1.776.731 1 1 0 0 1 .7.953v4.63zm6.9-8.515 1.413 1.415-1.413 1.413-1.415-1.413zm-10.9-23.485h2v2h-2zm-12 16h-2v-2h2zm3.1 10.313-1.413-1.413 1.413-1.415 1.415 1.415zm0-19.8-1.413-1.413 1.413-1.413 1.415 1.413zm8.9 21.487h2v2h-2z"/><path d="m34 22h6v6h-6z"/><path d="m42 38h6v6h-6z"/></svg>