<svg id="Capa_1" enable-background="new 0 0 512 512" height="512" viewBox="0 0 512 512" width="512" xmlns="http://www.w3.org/2000/svg"><g><path d="m219.85 96.4c-8.284 0-15 6.716-15 15v81.4h-18.2v-81.4c0-8.284-6.716-15-15-15s-15 6.716-15 15v81.4h-18.201v-81.4c0-8.284-6.716-15-15-15s-15 6.716-15 15v96.4c0 19.44 9.052 37.747 24.102 49.635v119.065c0 21.56 17.54 39.101 39.1 39.101s39.1-17.54 39.1-39.101v-119.067c15.05-11.888 24.1-30.193 24.1-49.633v-96.4c-.001-8.284-6.717-15-15.001-15zm-31.631 140.162c-4.919 2.843-7.718 8.154-7.469 13.654v126.284c0 5.018-4.082 9.101-9.1 9.101s-9.1-4.082-9.1-9.101v-126.091c.321-5.569-2.495-10.971-7.471-13.847-5.667-3.275-10.148-8.105-13.024-13.763h59.188c-2.876 5.659-7.357 10.489-13.024 13.763z"/><path d="m316.25 96.4c-8.284 0-15 6.716-15 15v265.1c0 21.56 17.54 39.101 39.1 39.101s39.1-17.54 39.1-39.101v-111.95h9.102c8.284 0 15-6.716 15-15v-65.85c-.001-48.137-39.164-87.3-87.302-87.3zm57.301 138.15h-9.102c-8.284 0-15 6.716-15 15v126.95c0 5.018-4.082 9.101-9.1 9.101s-9.1-4.082-9.1-9.101v-248.108c24.345 6.608 42.301 28.9 42.301 55.308v50.85z"/><path d="m456.834 0h-401.668c-30.419 0-55.166 24.748-55.166 55.167v401.666c0 30.419 24.747 55.167 55.166 55.167h401.668c30.419 0 55.166-24.748 55.166-55.167v-401.666c0-30.419-24.747-55.167-55.166-55.167zm25.166 456.833c0 13.877-11.289 25.167-25.166 25.167h-401.668c-13.877 0-25.166-11.29-25.166-25.167v-401.666c0-13.877 11.289-25.167 25.166-25.167h401.668c13.877 0 25.166 11.29 25.166 25.167z"/></g></svg>