<svg height="512" viewBox="0 0 57 60" width="512" xmlns="http://www.w3.org/2000/svg"><g id="005---Public-Toilet"><path id="Shape" d="m19 8c0-2.76142375-2.2385763-5-5-5s-5 2.23857625-5 5c0 2.7614237 2.2385763 5 5 5 2.7600532-.0033061 4.9966939-2.2399468 5-5zm-5 3c-1.6568542 0-3-1.34314575-3-3s1.3431458-3 3-3 3 1.34314575 3 3-1.3431458 3-3 3z"/><path id="Shape" d="m51 8c0-2.76142375-2.2385763-5-5-5s-5 2.23857625-5 5c0 2.7614237 2.2385763 5 5 5 2.7600532-.0033061 4.9966939-2.2399468 5-5zm-5 3c-1.6568542 0-3-1.34314575-3-3s1.3431458-3 3-3 3 1.34314575 3 3-1.3431458 3-3 3z"/><path id="Shape" d="m32 0h-2c-1.1045695 0-2 .8954305-2 2v56c0 1.1045695.8954305 2 2 2h2c1.1045695 0 2-.8954305 2-2v-56c0-1.1045695-.8954305-2-2-2zm-2 58v-56h2v56z"/><path id="Shape" d="m51 13h-10c-3.3123376.0033074-5.9966926 2.6876624-6 6v12.5c-.0014324 1.2001793.614098 2.3168479 1.6296518 2.9564437 1.0155539.6395959 2.2885569.7123256 3.3703482.1925563v19.851c.003037 1.4207572.8646431 2.6987143 2.1805857 3.234303 1.3159426.5355886 2.8250925.2225291 3.8194143-.792303.9943218 1.0148321 2.5034717 1.3278916 3.8194143.792303 1.3159426-.5355887 2.1775487-1.8135458 2.1805857-3.234303v-19.851c1.0817913.5197693 2.3547943.4470396 3.3703482-.1925563 1.0155538-.6395958 1.6310842-1.7562644 1.6296518-2.9564437v-12.5c-.0033074-3.3123376-2.6876624-5.9966926-6-6zm-7.5 43c-.8284271 0-1.5-.6715729-1.5-1.5v-17.5h3v17.5c0 .8284271-.6715729 1.5-1.5 1.5zm6.5-1.5c0 .8284271-.6715729 1.4999999-1.5 1.4999999s-1.5-.6715728-1.5-1.4999999v-17.5h3zm5-23c0 .8284271-.6715729 1.5-1.5 1.5s-1.5-.6715729-1.5-1.5v-12.5c0-.5522847-.4477153-1-1-1s-1 .4477153-1 1v16h-8v-16c0-.5522847-.4477153-1-1-1s-1 .4477153-1 1v12.5c0 .8284271-.6715729 1.5-1.5 1.5s-1.5-.6715729-1.5-1.5v-12.5c0-2.209139 1.790861-4 4-4h10c2.209139 0 4 1.790861 4 4z"/><path id="Shape" d="m23.391 15.892c-.4992418-1.7077969-2.0617438-2.8842498-3.841-2.892h-9.59c-2.67284817.0118421-5.02017905 1.7787465-5.771 4.344l-3.589 12.491c-.53085233 1.8539023.53789082 3.787925 2.39 4.325.51951934.1523185 1.0675086.1807454 1.6.083l-1.19 4.213c-.17069282.6038781-.04805382 1.2528596.33123069 1.7528077s.9712329.792889 1.59876931.7911923h2.67v13.5c-.00317641 1.4237439.85760265 2.7071053 2.1760817 3.2443855 1.318479.5372802 2.8310825.2210722 3.8239183-.7993855.01.01.016.022.026.032 1.0013485 1.000642 2.5068708 1.2995547 3.8145415.7573551 1.3076708-.5421996 2.1599653-1.8187341 2.1594585-3.2343551v-13.5h2.67c.627304.0016075 1.2190193-.2912004 1.5982578-.7908914.3792386-.499691.5020579-1.1483657.3317422-1.7521086l-1.2-4.213c.5323464.099086 1.0805724.0709894 1.6-.082.8923235-.2557973 1.6464835-.8555941 2.0965715-1.6674403s.5592346-1.7692387.3034285-2.6615597zm-11.891 40.108c-.3984777.0021424-.7812546-.1552048-1.0630249-.4369751s-.4391175-.6645472-.4369751-1.0630249l-.00002159-13.5h3.00002159v13.5c0 .8284271-.6715729 1.5-1.5 1.5zm6.5-1.5c0 .8284271-.6715729 1.5-1.5 1.5s-1.5-.6715729-1.5-1.5v-13.5h3zm6.449-22.259c-.7962111.2254381-1.6253524-.2328655-1.858-1.027l-3.591-12.5c-.1570269-.5242242-.7062575-.8248648-1.2324701-.6746356-.5262125.1502292-.8339362.6955228-.6905299 1.2236356l5.593 19.737h-13.67-.011-3.667l5.6-19.74c.1501956-.5306782-.1576157-1.0827699-.688-1.234-.0893123-.0261656-.1819342-.039301-.275-.039-.44555814.0005159-.83702617.295748-.96.724l-3.588 12.497c-.22698904.7980515-1.05794854 1.260989-1.85599999 1.034-.79805146-.2269891-1.26098903-1.0579485-1.03400001-1.856l3.589-12.486c.50070292-1.7117729 2.06652222-2.8912213 3.85-2.9h9.59c.889183.0042076 1.6698235.5924338 1.919 1.446l4.01 13.938c.1100997.3828479.0633864.7937674-.1298376 1.1421334-.193224.3483661-.5170866.6055625-.9001624.7148666z"/></g></svg>