<?xml version="1.0" encoding="iso-8859-1"?>
<!-- Generator: Adobe Illustrator 19.0.0, SVG Export Plug-In . SVG Version: 6.00 Build 0)  -->
<svg version="1.1" id="Capa_1" xmlns="http://www.w3.org/2000/svg" xmlns:xlink="http://www.w3.org/1999/xlink" x="0px" y="0px"
	 viewBox="0 0 297 297" style="enable-background:new 0 0 297 297;" xml:space="preserve">
<g>
	<path d="M289.333,119h-33c-4.418,0-8.333,3.582-8.333,8v17H107v-6c0-15.439-12.561-28-28-28l-30-0.016V78c0-4.418-3.249-8-7.667-8
		h-33C3.915,70,0,73.582,0,78v74v41v9c0,4.418,3.915,8,8.333,8H16v9c0,4.418,3.582,8,8,8s8-3.582,8-8v-9h232v9c0,4.418,3.582,8,8,8
		s8-3.582,8-8v-9h9.333c4.418,0,7.667-3.582,7.667-8v-9v-41v-25C297,122.582,293.751,119,289.333,119z M91,138v6H49v-17.997L79,126
		C85.617,126,91,131.383,91,138z M248,185H141v-25h107V185z M125,185H49v-25h76V185z"/>
</g>
<g>
</g>
<g>
</g>
<g>
</g>
<g>
</g>
<g>
</g>
<g>
</g>
<g>
</g>
<g>
</g>
<g>
</g>
<g>
</g>
<g>
</g>
<g>
</g>
<g>
</g>
<g>
</g>
<g>
</g>
</svg>
