<?xml version="1.0" encoding="iso-8859-1"?>
<!-- Generator: Adobe Illustrator 19.0.0, SVG Export Plug-In . SVG Version: 6.00 Build 0)  -->
<svg version="1.1" id="Capa_1" xmlns="http://www.w3.org/2000/svg" xmlns:xlink="http://www.w3.org/1999/xlink" x="0px" y="0px"
	 viewBox="0 0 297 297" style="enable-background:new 0 0 297 297;" xml:space="preserve">
<g>
	<path d="M289.833,17.5h-33c-4.418,0-8.833,3.582-8.833,8v26H107v-6c0-15.44-11.504-28-26.667-28h-71.5C4.415,17.5,0,21.082,0,25.5
		v229c0,4.418,4.415,8,8.833,8H16v9c0,4.418,3.582,8,8,8s8-3.582,8-8v-9h232v9c0,4.418,3.582,8,8,8s8-3.582,8-8v-9h9.833
		c4.418,0,7.167-3.582,7.167-8v-229C297,21.082,294.251,17.5,289.833,17.5z M49,33.5h31.333C86.781,33.5,91,38.771,91,45.5v6H49
		V33.5z M49,67.5h74v16H49V67.5z M49,164.551c1-0.027,1.495-0.051,1.833-0.051h29c6.617,0,11.167,5.383,11.167,12v6H49V164.551z
		 M49,198.5h74v16H49V198.5z M248,214.5H139v-16h109V214.5z M248,182.5H107v-6c0-15.439-11.728-28-27.167-28h-29
		c-0.335,0-0.833,0.014-1.833,0.025V131.5h199V182.5z M248,83.5H139v-16h109V83.5z"/>
</g>
<g>
</g>
<g>
</g>
<g>
</g>
<g>
</g>
<g>
</g>
<g>
</g>
<g>
</g>
<g>
</g>
<g>
</g>
<g>
</g>
<g>
</g>
<g>
</g>
<g>
</g>
<g>
</g>
<g>
</g>
</svg>
