<?xml version="1.0" encoding="iso-8859-1"?>
<!-- Generator: Adobe Illustrator 19.0.0, SVG Export Plug-In . SVG Version: 6.00 Build 0)  -->
<svg version="1.1" id="Layer_1" xmlns="http://www.w3.org/2000/svg" xmlns:xlink="http://www.w3.org/1999/xlink" x="0px" y="0px"
	 viewBox="0 0 512 512" style="enable-background:new 0 0 512 512;" xml:space="preserve">
<g>
	<g>
		<circle cx="256" cy="162" r="60"/>
	</g>
</g>
<g>
	<g>
		<path d="M41,109c0-11.329,4.475-16.399,11.248-24.076C60.162,75.955,71,63.671,71,41H41c0,11.329-4.475,16.399-11.248,24.076
			C21.838,74.045,11,86.329,11,109c0,22.671,10.838,34.955,18.752,43.924C36.525,160.601,41,165.671,41,177h30
			c0-22.671-10.838-34.955-18.752-43.924C45.475,125.399,41,120.329,41,109z"/>
	</g>
</g>
<g>
	<g>
		<path d="M121,109c0-11.329,4.475-16.399,11.248-24.076C140.162,75.955,151,63.671,151,41h-30c0,11.329-4.475,16.399-11.248,24.076
			C101.838,74.045,91,86.329,91,109c0,22.671,10.838,34.955,18.752,43.924C116.525,160.601,121,165.671,121,177h30
			c0-22.671-10.838-34.955-18.752-43.924C125.475,125.399,121,120.329,121,109z"/>
	</g>
</g>
<g>
	<g>
		<path d="M391,109c0-11.329,4.475-16.399,11.248-24.076C410.162,75.955,421,63.671,421,41h-30c0,11.329-4.475,16.399-11.248,24.076
			C371.838,74.045,361,86.329,361,109c0,22.671,10.838,34.955,18.752,43.924C386.525,160.601,391,165.671,391,177h30
			c0-22.671-10.838-34.955-18.752-43.924C395.475,125.399,391,120.329,391,109z"/>
	</g>
</g>
<g>
	<g>
		<path d="M471,109c0-11.329,4.475-16.399,11.248-24.076C490.162,75.955,501,63.671,501,41h-30c0,11.329-4.475,16.399-11.248,24.076
			C451.838,74.045,441,86.329,441,109c0,22.671,10.838,34.955,18.752,43.924C466.525,160.601,471,165.671,471,177h30
			c0-22.671-10.838-34.955-18.752-43.924C475.475,125.399,471,120.329,471,109z"/>
	</g>
</g>
<g>
	<g>
		<path d="M463.822,262.297C465.244,268.641,466,275.233,466,282v48c0,15.64-5.911,30.509-16.643,41.87
			c-11,11.644-25.807,18.295-41.692,18.731c-16.361,0.454-31.795-5.58-43.503-16.971c-3.095-3.012-5.823-6.294-8.161-9.795V396h-30
			V282h50v48.624c0,16.849,13.89,30.453,30.843,29.988C423.184,360.165,436,346.347,436,330v-48c0-33.137-26.863-60-60-60H256H136
			c-33.137,0-60,26.863-60,60v48c0,16.347,12.816,30.165,29.157,30.612C122.11,361.077,136,347.473,136,330.624V282h50v114h-30
			v-32.166c-2.338,3.501-5.066,6.784-8.161,9.795c-11.709,11.393-27.163,17.418-43.505,16.972
			c-15.885-0.436-30.691-7.087-41.691-18.731C51.911,360.509,46,345.64,46,330v-48c0-6.767,0.756-13.359,2.178-19.703
			C19.999,273.426,0,300.912,0,333v68c0,20.35,8.189,38.634,23.059,51.483C36.877,464.424,55.679,471,76,471h360
			c20.321,0,39.123-6.576,52.941-18.517C503.811,439.634,512,421.35,512,401v-68C512,300.912,492.001,273.426,463.822,262.297z"/>
	</g>
</g>
<g>
</g>
<g>
</g>
<g>
</g>
<g>
</g>
<g>
</g>
<g>
</g>
<g>
</g>
<g>
</g>
<g>
</g>
<g>
</g>
<g>
</g>
<g>
</g>
<g>
</g>
<g>
</g>
<g>
</g>
</svg>
