<?xml version="1.0" encoding="iso-8859-1"?>
<!-- Generator: Adobe Illustrator 19.0.0, SVG Export Plug-In . SVG Version: 6.00 Build 0)  -->
<svg version="1.1" id="Capa_1" xmlns="http://www.w3.org/2000/svg" xmlns:xlink="http://www.w3.org/1999/xlink" x="0px" y="0px"
	 viewBox="0 0 512 512" style="enable-background:new 0 0 512 512;" xml:space="preserve">
<g>
	<g>
		<path d="M444.5,422h-377L0,512h512L444.5,422z M82.5,452h347l22.5,30H60L82.5,452z"/>
	</g>
</g>
<g>
	<g>
		<path d="M452,150V0H60v150H0v242h512V150H452z M90,30h332v120h-30V60H120v90H90V30z M362,90v60H150V90H362z M180.667,362H90V240
			h90.667V362z M301.333,362h-90.667V240h90.667V362z M422,362h-90.667V240H422V362z M482,362h-30V210H60v152H30V180h452V362z"/>
	</g>
</g>
<g>
</g>
<g>
</g>
<g>
</g>
<g>
</g>
<g>
</g>
<g>
</g>
<g>
</g>
<g>
</g>
<g>
</g>
<g>
</g>
<g>
</g>
<g>
</g>
<g>
</g>
<g>
</g>
<g>
</g>
</svg>
