<svg id="Capa_1" enable-background="new 0 0 512 512" height="512" viewBox="0 0 512 512" width="512" xmlns="http://www.w3.org/2000/svg"><g><g><path d="m512 294.767c0-16.516-6.174-31.395-15.992-41.71l-.01-173.147c5.107-4.963 8.29-11.897 8.29-19.564v-5.907c0-15.05-12.244-27.293-27.293-27.293h-22.915c-15.05 0-27.294 12.244-27.294 27.293v5.907c0 8.506 3.913 16.114 10.031 21.123l-7.658 20.846h-346.319l-7.653-20.848c6.117-5.009 10.028-12.616 10.028-21.121v-5.907c0-15.05-12.244-27.293-27.294-27.293h-22.915c-15.05 0-27.293 12.244-27.293 27.293v5.907c0 7.665 3.18 14.597 8.285 19.559v173.148c-9.821 10.316-15.998 25.198-15.998 41.718v170.776c0 10.646 8.661 19.306 19.306 19.306h14.363c6.117 0 11.937-2.941 15.569-7.867 3.66-4.964 4.716-11.181 2.897-17.057-.961-3.104-.667-5.604.953-8.108 2.166-3.347 6.273-6.505 10.621-9.849 8.717-6.703 20.155-15.501 23.496-32.134h33.424c5.523 0 10-4.477 10-10 0-.69-.07-1.365-.203-2.016-.931-4.558-4.964-7.987-9.797-7.987l-100.629.005v-31.426h472v31.424h-283.381c-5.523 0-10 4.477-10 10v.001.001c0 5.523 4.477 10 10 10h216.175c3.342 16.633 14.779 25.43 23.496 32.134 4.348 3.344 8.456 6.502 10.621 9.849 1.62 2.503 1.914 5.004.953 8.108-1.819 5.875-.763 12.092 2.897 17.057 3.632 4.926 9.452 7.867 15.569 7.867h14.363c10.646 0 19.306-8.661 19.306-19.306zm-46.432-56.276c-.753-.039-1.508-.066-2.263-.066h-19.465c.002-19.007-3.047-34.342-5.088-42.471-.065-.258-.03-.544.114-.837l.192-.394c3.853-7.869 2.539-17.148-3.346-23.641-5.884-6.491-14.988-8.708-23.231-5.631-.274.105-.631.094-1.006-.082-8.39-3.904-26.822-10.454-56.009-10.454-29.206 0-47.624 6.551-56.014 10.46-.343.16-.701.185-1.012.067-.061-.022-.138-.05-.214-.077-8.166-2.984-17.198-.762-23.046 5.685-5.885 6.487-7.203 15.764-3.398 23.551l.21.44c.017.035.034.07.051.105.129.263.161.55.095.813-2.039 8.124-5.091 23.469-5.092 42.464h-22.096c.002-19.005-3.047-34.341-5.088-42.473-.065-.257-.029-.543.11-.827l.197-.403c3.853-7.869 2.541-17.148-3.341-23.64-5.881-6.49-14.985-8.707-23.235-5.632-.273.105-.639.091-1.001-.08-8.38-3.905-26.798-10.456-56.004-10.456-29.214 0-47.634 6.551-56.024 10.46-.329.153-.673.181-.973.082-.037-.014-.074-.028-.11-.042-8.21-3.061-17.312-.846-23.193 5.641-5.882 6.486-7.199 15.761-3.316 23.707l.177.353c.133.271.167.578.1.845-2.039 8.126-5.091 23.472-5.092 42.463h-19.462c-4.292 0-8.597.645-12.697 1.914v-78.154c0-21.984 17.881-39.87 39.86-39.87h360.28c16.48 0 31.633 10.641 37.383 26.062 1.642 4.403 2.487 9.108 2.487 13.808v78.156c-3.387-1.045-6.9-1.656-10.44-1.846zm-374.484-52.224-.181-.361c-.123-.252-.379-.775.2-1.414.531-.585 1.02-.468 1.316-.364.035.014.07.027.104.04 5.311 1.993 11.328 1.749 16.499-.668 5.539-2.581 21.261-8.584 47.566-8.584 26.296 0 42.017 6.003 47.521 8.568 2.865 1.349 5.926 2.032 9.099 2.032 2.566 0 5.075-.456 7.413-1.34.282-.105.808-.301 1.386.336.58.64.323 1.164.197 1.423l-.19.389c-2.221 4.519-2.768 9.681-1.544 14.516 1.458 5.811 4.46 19.924 4.477 37.585h-136.786c.019-17.649 3.026-31.779 4.49-37.613 1.205-4.835.663-9.97-1.567-14.545zm198.936.112-.227-.474c-.123-.252-.379-.777.201-1.417.576-.635 1.098-.44 1.378-.335.054.02.123.044.192.069 5.276 1.934 11.228 1.67 16.349-.724 5.539-2.581 21.26-8.584 47.556-8.584 26.282 0 42.023 6.005 47.531 8.567 2.865 1.349 5.926 2.033 9.099 2.033 2.566 0 5.075-.456 7.416-1.341.279-.105.802-.299 1.381.339.581.641.325 1.164.194 1.43l-.185.379c-2.222 4.518-2.769 9.68-1.546 14.518 1.458 5.81 4.461 19.921 4.477 37.585h-136.785c.019-17.652 3.027-31.78 4.491-37.613 1.203-4.831.663-9.954-1.522-14.432zm-254.022-68.824v-29.915h20.151l5.971 16.267c-9.671 2.279-18.719 7.028-26.122 13.648zm413.877-13.634 5.981-16.281h20.141v29.922c-7.42-6.636-16.443-11.329-26.122-13.641zm-3.09-49.482c0-4.021 3.272-7.293 7.294-7.293h22.915c4.021 0 7.293 3.272 7.293 7.293v5.907c0 3.992-3.225 7.242-7.207 7.289h-23.089c-3.982-.047-7.207-3.297-7.207-7.289v-5.907zm-419.072 0c0-4.021 3.272-7.293 7.293-7.293h22.915c4.022 0 7.294 3.272 7.294 7.293v5.907c0 3.992-3.226 7.242-7.207 7.289h-23.088c-3.981-.047-7.207-3.297-7.207-7.289zm23.805 371.681c-5.499 4.229-11.185 8.601-15.22 14.838-4.672 7.221-5.895 15.463-3.558 23.896h-12.74v-55.014h46.433c-2.706 6.891-8.319 11.207-14.915 16.28zm-31.518-87.706v-43.642c0-16.225 10.188-36.346 28.698-36.346h414.61c18.506 0 28.692 20.122 28.692 36.342v43.646zm472 126.44h-12.74c2.336-8.434 1.114-16.676-3.558-23.896-4.036-6.237-9.722-10.609-15.22-14.838-6.596-5.072-12.208-9.388-14.915-16.279h46.433z"/><path d="m174.26 396.02c-3.395-8.288-15.633-7.955-18.646.455-1.433 3.998-.109 8.636 3.257 11.243 3.259 2.525 7.804 2.8 11.333.665 4.159-2.516 5.931-7.866 4.056-12.363z"/></g></g></svg>