<?xml version="1.0"?>
<svg xmlns="http://www.w3.org/2000/svg" height="512px" viewBox="0 -91 438.86161 438" width="512px"><g><path d="m429.71875.429688h-420.574219c-5.050781 0-9.144531 4.089843-9.144531 9.144531v237.714843c0 5.050782 4.09375 9.140626 9.144531 9.140626h420.574219c5.046875 0 9.144531-4.089844 9.144531-9.140626v-237.714843c0-5.054688-4.097656-9.144531-9.144531-9.144531zm-9.144531 237.714843h-402.289063v-219.429687h402.289063zm0 0" data-original="#000000" class="active-path" data-old_color="#000000" fill="#0060BE"/><path d="m45.71875 201.566406c5.039062 0 9.144531 4.097656 9.144531 9.140625 0 5.054688 4.09375 9.144531 9.140625 9.144531h310.859375c5.046875 0 9.140625-4.089843 9.140625-9.144531 0-5.035156 4.109375-9.132812 9.152344-9.140625 5.042969-.011718 9.132812-4.101562 9.132812-9.144531v-127.992187c0-5.050782-4.09375-9.140626-9.140624-9.140626-5.042969 0-9.144532-4.097656-9.144532-9.144531 0-2.429687-.964844-4.757812-2.679687-6.472656-1.710938-1.714844-4.039063-2.679687-6.460938-2.679687l-310.859375.011718c-5.046875 0-9.140625 4.085938-9.140625 9.140625 0 5.046875-4.105469 9.144531-9.144531 9.144531-5.046875 0-9.144531 4.089844-9.144531 9.140626v127.992187c0 5.054687 4.097656 9.144531 9.144531 9.144531zm9.144531-129.5625c7.78125-2.761718 13.957031-8.9375 16.71875-16.726562l295.703125.011718c2.757813 7.785157 8.9375 13.964844 16.71875 16.722657v112.839843c-7.78125 2.757813-13.953125 8.9375-16.71875 16.714844h-295.703125c-2.761719-7.789062-8.9375-13.964844-16.71875-16.726562zm0 0" data-original="#000000" class="active-path" data-old_color="#000000" fill="#0060BE"/><path d="m219.433594 183.277344c30.25 0 54.855468-24.605469 54.855468-54.855469s-24.605468-54.855469-54.855468-54.855469-54.859375 24.605469-54.859375 54.855469 24.609375 54.855469 54.859375 54.855469zm0-91.425782c20.164062 0 36.570312 16.402344 36.570312 36.570313s-16.40625 36.570313-36.570312 36.570313c-20.164063 0-36.570313-16.402344-36.570313-36.570313s16.40625-36.570313 36.570313-36.570313zm0 0" data-original="#000000" class="active-path" data-old_color="#000000" fill="#0060BE"/><path d="m206.125 138.351562-4.980469 5.9375c4.960938 4.324219 10.554688 6.800782 16.785157 7.4375v4.980469h4.367187v-4.914062c4.640625-.226563 8.367187-1.59375 11.1875-4.09375 2.820313-2.503907 4.234375-5.738281 4.234375-9.71875 0-3.984375-1.230469-7.019531-3.6875-9.113281-2.457031-2.089844-6.296875-3.753907-11.527344-4.980469h-.207031v-12.828125c3.5.5 6.753906 1.824218 9.757813 3.960937l4.433593-6.28125c-4.457031-3.042969-9.1875-4.75-14.191406-5.113281v-3.480469h-4.367187v3.410157c-4.410157.226562-7.996094 1.59375-10.746094 4.097656-2.75 2.5-4.128906 5.71875-4.128906 9.648437 0 3.9375 1.195312 6.90625 3.585937 8.90625 2.386719 2.003907 6.148437 3.613281 11.289063 4.84375v13.238281c-4.046876-.636718-7.980469-2.617187-11.804688-5.9375zm16.171875-6.140624c2.730469.820312 4.59375 1.699218 5.59375 2.625 1 .933593 1.503906 2.199218 1.503906 3.785156 0 1.59375-.640625 2.917968-1.910156 3.960937-1.277344 1.050781-3.003906 1.683594-5.1875 1.910157zm-9.550781-12.109376c-.914063-.890624-1.363282-2.089843-1.363282-3.617187 0-1.519531.578126-2.796875 1.734376-3.820313 1.160156-1.019531 2.765624-1.625 4.8125-1.808593v11.804687c-2.546876-.816406-4.273438-1.671875-5.183594-2.558594zm0 0" data-original="#000000" class="active-path" data-old_color="#000000" fill="#0060BE"/></g> </svg>
