<svg xmlns="http://www.w3.org/2000/svg" width="17.222" height="15.5" viewBox="0 0 17.222 15.5">
  <g id="Icon_material-pool" data-name="Icon material-pool" transform="translate(-3 -4.5)">
    <path id="Path_275" data-name="Path 275" d="M20.222,20a3.294,3.294,0,0,1-1.877-.551,1.617,1.617,0,0,0-.99-.31,1.546,1.546,0,0,0-.99.31,3.473,3.473,0,0,1-3.754,0,1.617,1.617,0,0,0-.99-.31,1.546,1.546,0,0,0-.99.31A3.351,3.351,0,0,1,8.744,20a3.294,3.294,0,0,1-1.877-.551,1.563,1.563,0,0,0-.99-.31,1.563,1.563,0,0,0-.99.31A3.351,3.351,0,0,1,3,20V18.278a1.546,1.546,0,0,0,.99-.31,3.351,3.351,0,0,1,1.886-.551,3.294,3.294,0,0,1,1.877.551,1.546,1.546,0,0,0,.99.31,1.546,1.546,0,0,0,.99-.31,3.351,3.351,0,0,1,1.886-.551,3.294,3.294,0,0,1,1.877.551,1.617,1.617,0,0,0,.99.31,1.563,1.563,0,0,0,.99-.31,3.473,3.473,0,0,1,3.754,0,1.546,1.546,0,0,0,.99.31Zm0-3.875a3.294,3.294,0,0,1-1.877-.551,1.617,1.617,0,0,0-.99-.31,1.546,1.546,0,0,0-.99.31,3.473,3.473,0,0,1-3.754,0,1.617,1.617,0,0,0-.99-.31,1.546,1.546,0,0,0-.99.31,3.294,3.294,0,0,1-1.877.551,3.294,3.294,0,0,1-1.877-.551,1.617,1.617,0,0,0-.99-.31,1.563,1.563,0,0,0-.99.31A3.408,3.408,0,0,1,3,16.125V14.4a1.546,1.546,0,0,0,.99-.31,3.294,3.294,0,0,1,1.877-.551,3.294,3.294,0,0,1,1.877.551,1.616,1.616,0,0,0,.99.31,1.546,1.546,0,0,0,.99-.31,3.473,3.473,0,0,1,3.754,0,1.616,1.616,0,0,0,.99.31,1.563,1.563,0,0,0,.99-.31,3.473,3.473,0,0,1,3.754,0,1.616,1.616,0,0,0,.99.31v1.722ZM8.744,12.25a1.546,1.546,0,0,0,.99-.31,3.351,3.351,0,0,1,1.886-.551,3.294,3.294,0,0,1,1.877.551,1.617,1.617,0,0,0,.99.31,1.563,1.563,0,0,0,.99-.31c.1-.06.224-.129.353-.2L10.3,6.222A5.732,5.732,0,0,0,5.583,4.5V6.653A4.237,4.237,0,0,1,9.028,7.944l.861.861-2.8,2.8a4.712,4.712,0,0,1,.663.336A1.546,1.546,0,0,0,8.744,12.25Z" transform="translate(0)" fill="#0060be"/>
    <path id="Path_276" data-name="Path 276" d="M25.306,6.653A2.153,2.153,0,1,1,23.153,4.5,2.153,2.153,0,0,1,25.306,6.653Z" transform="translate(-7.667 0)" fill="#0060be"/>
  </g>
</svg>
