<svg xmlns="http://www.w3.org/2000/svg" width="145.715" height="127.501" viewBox="0 0 145.715 127.501">
  <path id="Icon_metro-table" data-name="Icon metro-table" d="M2.571,3.856v127.5H148.286V3.856H2.571ZM57.214,85.821V58.5H93.643V85.821Zm36.429,9.107V122.25H57.214V94.928Zm0-72.858V49.392H57.214V22.07H93.643Zm-45.536,0V49.392H11.678V22.07H48.107ZM11.678,58.5H48.107V85.821H11.678V58.5Zm91.072,0h36.429V85.821H102.75V58.5Zm0-9.107V22.07h36.429V49.392ZM11.678,94.928H48.107V122.25H11.678V94.928ZM102.75,122.25V94.928h36.429V122.25Z" transform="translate(-2.571 -3.856)" fill="#0060be"/>
</svg>
