<?xml version="1.0" ?><!DOCTYPE svg  PUBLIC '-//W3C//DTD SVG 1.1//EN'  'http://www.w3.org/Graphics/SVG/1.1/DTD/svg11.dtd'><svg enable-background="new 0 0 500 500" height="500px" id="Layer_1" version="1.1" viewBox="0 0 500 500" width="500px" xml:space="preserve" xmlns="http://www.w3.org/2000/svg" xmlns:xlink="http://www.w3.org/1999/xlink"><path clip-rule="evenodd" d="M31.948,268.172c0,20.079,16.264,36.341,36.341,36.341h90.855  v127.198c0,20.078,16.264,36.34,36.342,36.34c20.079,0,36.343-16.262,36.343-36.34V304.513h127.283  c12.724,0,24.259-5.269,32.527-13.717l63.049-63.056c17.816-17.808,17.816-46.697,0-64.505l-63.049-63.056  c-8.269-8.448-19.804-13.717-32.527-13.717H231.829V68.29c0-20.077-16.264-36.34-36.343-36.34c-20.079,0-36.342,16.264-36.342,36.34  v18.172H68.289c-20.077,0-36.341,16.264-36.341,36.341V268.172z" fill="#0060be" fill-rule="evenodd"/></svg>