<svg xmlns="http://www.w3.org/2000/svg" width="20.128" height="18.92" viewBox="0 0 20.128 18.92">
  <path id="Icon_map-car-wash" data-name="Icon map-car-wash" d="M17.31,3.05V1.44H2.818V3.05H0V20.36H1.61V4.66H2.818v1.61H17.31V4.66h1.208v15.7h1.61V3.05Zm-.382,9.259L14.3,7.831a.733.733,0,0,0-.582-.352H6.408a.731.731,0,0,0-.582.352L3.2,12.309a.8.8,0,0,0-.785.805V17.14a.8.8,0,0,0,.785.805h.826v1.208A1.162,1.162,0,0,0,5.161,20.36h.392a1.3,1.3,0,0,0,1.29-1.208V17.945h6.441v1.208a1.3,1.3,0,0,0,1.29,1.208h.392A1.162,1.162,0,0,0,16.1,19.152V17.945h.826a.8.8,0,0,0,.784-.805V13.114A.8.8,0,0,0,16.928,12.309ZM4.573,15.529a1.007,1.007,0,1,1,.981-1.006A.994.994,0,0,1,4.573,15.529Zm.588-3.22L6.946,9.046a.7.7,0,0,1,.568-.36h5.1a.694.694,0,0,1,.568.36l1.786,3.263H5.161Zm10.394,3.22a1.007,1.007,0,1,1,.981-1.006.994.994,0,0,1-.981,1.006Z" transform="translate(0 -1.44)" fill="#0060be"/>
</svg>
