<?xml version="1.0" encoding="utf-8"?>
<!-- Generator: Adobe Illustrator 23.0.3, SVG Export Plug-In . SVG Version: 6.00 Build 0)  -->
<svg version="1.1" id="Layer_1" xmlns="http://www.w3.org/2000/svg" xmlns:xlink="http://www.w3.org/1999/xlink" x="0px" y="0px"
	 viewBox="0 0 300 168" style="enable-background:new 0 0 300 168;" xml:space="preserve">
<style type="text/css">
	.st0{fill:url(#XMLID_3_);stroke:#FFFFFF;stroke-width:4;stroke-miterlimit:10;}
	.st1{fill:url(#XMLID_4_);stroke:#FFFFFF;stroke-width:4;stroke-miterlimit:10;}
	.st2{fill:#FFFFFF;}
</style>
<g id="XMLID_39_">
	
		<linearGradient id="XMLID_3_" gradientUnits="userSpaceOnUse" x1="129.2161" y1="66.3839" x2="219.6905" y2="156.8584" gradientTransform="matrix(1 0 0 -1 0 170)">
		<stop  offset="0" style="stop-color:#004771"/>
		<stop  offset="0.621" style="stop-color:#006B91"/>
		<stop  offset="1" style="stop-color:#007CA0"/>
	</linearGradient>
	<path id="XMLID_11_" class="st0" d="M120.8,95.2l23.9-41.4c1.1-2.2,5.1-9.6,9.2-16.9L143,30.5c-6.5-3.8-6.7-8.5-0.3-10.3l17.8-5.2
		c6.3-1.8,16.7-4.8,23-6.7l17.8-5.2c6.3-1.8,12.7,1.9,14.2,8.3l4.1,18c1.5,6.4,3.8,16.9,5.3,23.3l4.1,18c1.5,6.4-2.7,8.5-9.2,4.7
		l-11.2-6.6c-4.1,7-8.2,13.9-9.8,16.4c-3.6,5.8-10.5,10.2-24.1,10.1L120.8,95.2"/>
	
		<linearGradient id="XMLID_4_" gradientUnits="userSpaceOnUse" x1="73.4242" y1="106.1908" x2="137.4034" y2="106.1908" gradientTransform="matrix(1 0 0 -1 0 170)">
		<stop  offset="0" style="stop-color:#001F43"/>
		<stop  offset="1" style="stop-color:#004870"/>
	</linearGradient>
	<path id="XMLID_20_" class="st1" d="M90.1,85.3c-4.4-6.6-15.4-24.2-15.4-24.2c-2.5-3.9-1.2-9.1,2.8-11.5l27.2-15.9
		c4-2.4,9.3-1,11.7,2.9c0,0,15.3,25.1,16.7,27.4c1.5,2.4,2.8,3.7,4.2,2.3l-16.6,28.8c-4.4,0-8,0-9.8-0.1
		C103.9,95.1,95.8,93.9,90.1,85.3z"/>
</g>
<g id="XMLID_6_">
	
		<rect id="XMLID_7_" x="187.8" y="37.9" transform="matrix(0.4862 -0.8738 0.8738 0.4862 61.8742 189.3734)" class="st2" width="8.4" height="8.4"/>
	
		<rect id="XMLID_8_" x="197.3" y="43.1" transform="matrix(0.4862 -0.8738 0.8738 0.4862 62.1895 200.3801)" class="st2" width="8.4" height="8.4"/>
	
		<rect id="XMLID_9_" x="182.7" y="47" transform="matrix(0.4862 -0.8738 0.8738 0.4862 51.3172 189.6414)" class="st2" width="8.4" height="8.4"/>
	
		<rect id="XMLID_10_" x="192.2" y="52.3" transform="matrix(0.4862 -0.8738 0.8738 0.4862 51.5237 200.6491)" class="st2" width="8.4" height="8.4"/>
</g>
<g id="XMLID_1_">
	<g id="XMLID_67_">
		<path id="XMLID_68_" class="st2" d="M3.2,165.2c-0.6,0-0.9-0.1-1-0.4c-0.1-0.2-0.2-0.7-0.2-1.4v-24.2c0-0.5,0.1-0.9,0.2-1.1
			c0.2-0.2,0.5-0.4,1-0.4h2.3c0.6,0,1,0.1,1.2,0.4c0.2,0.2,0.3,0.7,0.3,1.3v21.2c0,0.2,0.1,0.2,0.4,0.2h9.4c0.6,0,0.9,0.1,1,0.2
			c0.1,0.2,0.2,0.5,0.2,0.9v1.9c0,0.5-0.1,0.9-0.3,1c-0.2,0.1-0.6,0.2-1.1,0.2H3.2V165.2z"/>
		<path id="XMLID_70_" class="st2" d="M38.7,165.2c-0.5,0-0.8-0.1-0.9-0.2c-0.1-0.1-0.3-0.4-0.4-0.9l-1.6-4.9h-8.7l-1.5,4.7
			c-0.1,0.4-0.3,0.7-0.5,0.9s-0.5,0.3-1,0.3h-2.7c-0.5,0-0.8-0.1-0.9-0.3c-0.2-0.2-0.1-0.7,0.2-1.5l7.7-24c0.2-0.5,0.4-0.9,0.7-1.1
			c0.2-0.2,0.7-0.3,1.2-0.3H33c0.6,0,1,0.1,1.2,0.3s0.4,0.6,0.6,1.1l7.7,24c0.3,0.9,0.3,1.4,0,1.6c-0.3,0.1-0.7,0.2-1.3,0.2
			L38.7,165.2L38.7,165.2z M31.5,145.3l-3.1,9.8h6.1L31.5,145.3z"/>
		<path id="XMLID_81_" class="st2" d="M63.6,165.3c-0.5,0-0.8-0.1-1.1-0.2c-0.2-0.1-0.5-0.5-0.8-0.9l-10.9-17.5v16.8
			c0,0.7-0.1,1.1-0.2,1.4c-0.1,0.2-0.5,0.4-1.1,0.4h-2.2c-0.3,0-0.6-0.1-0.9-0.2c-0.3-0.1-0.5-0.6-0.5-1.3v-24.1c0-0.1,0-0.2,0-0.4
			s0.1-0.4,0.1-0.5c0.1-0.2,0.2-0.4,0.3-0.5c0.2-0.1,0.4-0.2,0.7-0.2h2.3c0.6,0,1,0.1,1.2,0.2c0.2,0.1,0.4,0.3,0.5,0.5
			c0,0,0,0.1,0.1,0.1c0.1,0.1,0.2,0.3,0.4,0.6c0.2,0.4,0.6,0.9,1,1.6c0.5,0.7,1.1,1.8,1.9,3.1c0.8,1.3,1.9,3,3.2,5.1
			c1.3,2,2.8,4.5,4.7,7.5c0,0,0-0.1,0-0.2c0-0.1,0-0.3,0-0.6s0-0.8,0-1.5s0-1.7,0-2.9s0-2.8,0-4.8c0-1.9,0-4.3,0-7.2
			c0-0.4,0.1-0.7,0.2-1.1c0.1-0.4,0.4-0.6,0.8-0.5H66c0.6,0,0.9,0.1,1,0.4c0.1,0.3,0.2,0.7,0.2,1.3v23.9c0,0.7-0.1,1.1-0.2,1.4
			c-0.2,0.3-0.5,0.4-1.1,0.4L63.6,165.3z"/>
		<path id="XMLID_163_" class="st2" d="M74,165.2c-0.4,0-0.7-0.1-1-0.4c-0.3-0.3-0.4-0.7-0.4-1.3v-23.9c0-0.5,0.1-0.9,0.2-1.2
			c0.2-0.3,0.5-0.4,1-0.4h7.3c1.5,0,2.9,0.1,4.2,0.4c1.3,0.2,2.5,0.7,3.5,1.4s1.8,1.6,2.4,2.7c0.6,1.2,0.9,2.6,0.9,4.4v9.7
			c0,1.9-0.3,3.5-1,4.6c-0.6,1.1-1.5,2-2.4,2.6c-1,0.6-2,1-3.1,1.2s-2.2,0.3-3.1,0.3H74V165.2z M86.9,147.2c0-1.8-0.5-3.1-1.5-3.8
			s-2.4-1.1-4.2-1.1H78c-0.3,0-0.4,0.1-0.4,0.2v17.9c0,0.2,0.2,0.3,0.5,0.3h3c0.7,0,1.4-0.1,2.1-0.1c0.7-0.1,1.3-0.3,1.8-0.6
			s1-0.8,1.3-1.4c0.3-0.6,0.5-1.5,0.5-2.5L86.9,147.2L86.9,147.2z"/>
		<path id="XMLID_208_" class="st2" d="M99.8,165.2c-0.6,0-0.9-0.1-1-0.3s-0.2-0.6-0.2-1.1v-24.2c0-0.6,0.1-1,0.1-1.3
			c0.1-0.3,0.5-0.4,1.1-0.4h7c3.4,0,6,0.5,7.7,1.6s2.5,2.9,2.5,5.5c0,3.1-1.1,5.2-3.2,6.3c1.1,0.5,2,1.2,2.7,2.2c0.6,1,1,2.4,1,4.3
			c0,1.2-0.2,2.2-0.5,3.1c-0.3,0.9-0.9,1.7-1.6,2.3s-1.7,1.1-2.9,1.4c-1.2,0.3-2.7,0.5-4.5,0.5L99.8,165.2L99.8,165.2z M103.7,141.9
			c-0.2,0-0.2,0.1-0.2,0.2v7c0,0.1,0.1,0.2,0.3,0.2h3c1.8,0,3.1-0.3,3.9-0.9c0.8-0.6,1.2-1.5,1.2-2.8c0-1.4-0.4-2.4-1.3-2.9
			s-2.2-0.8-3.9-0.8H103.7z M103.8,153.6c-0.2,0-0.3,0.1-0.3,0.2v7.3c0,0.1,0.1,0.2,0.2,0.2h3c1.8,0,3.2-0.3,4.1-0.8
			s1.4-1.5,1.4-2.9s-0.5-2.4-1.4-3c-0.9-0.7-2.3-1-4-1H103.8z"/>
		<path id="XMLID_217_" class="st2" d="M139.5,165.2c-0.5,0-0.8-0.1-0.9-0.2c-0.1-0.1-0.3-0.4-0.4-0.9l-1.6-4.9h-8.7l-1.5,4.7
			c-0.1,0.4-0.3,0.7-0.5,0.9s-0.5,0.3-1,0.3h-2.7c-0.5,0-0.8-0.1-0.9-0.3c-0.2-0.2-0.1-0.7,0.2-1.5l7.7-24c0.2-0.5,0.4-0.9,0.7-1.1
			c0.2-0.2,0.7-0.3,1.2-0.3h2.7c0.6,0,1,0.1,1.2,0.3s0.4,0.6,0.6,1.1l7.7,24c0.3,0.9,0.3,1.4,0,1.6c-0.3,0.1-0.7,0.2-1.3,0.2
			L139.5,165.2L139.5,165.2z M132.3,145.3l-3.1,9.8h6.1L132.3,145.3z"/>
		<path id="XMLID_347_" class="st2" d="M164.4,165.3c-0.5,0-0.8-0.1-1.1-0.2c-0.2-0.1-0.5-0.5-0.8-0.9l-10.9-17.5v16.8
			c0,0.7-0.1,1.1-0.2,1.4c-0.1,0.2-0.5,0.4-1.1,0.4h-2.2c-0.3,0-0.6-0.1-0.9-0.2c-0.3-0.1-0.5-0.6-0.5-1.3v-24.1c0-0.1,0-0.2,0-0.4
			s0.1-0.4,0.1-0.5c0.1-0.2,0.2-0.4,0.3-0.5c0.2-0.1,0.4-0.2,0.7-0.2h2.3c0.6,0,1,0.1,1.2,0.2c0.2,0.1,0.4,0.3,0.5,0.5
			c0,0,0,0.1,0.1,0.1c0.1,0.1,0.2,0.3,0.4,0.6c0.2,0.4,0.6,0.9,1,1.6c0.5,0.7,1.1,1.8,1.9,3.1c0.8,1.3,1.9,3,3.2,5.1
			c1.3,2,2.8,4.5,4.7,7.5c0,0,0-0.1,0-0.2c0-0.1,0-0.3,0-0.6s0-0.8,0-1.5s0-1.7,0-2.9s0-2.8,0-4.8c0-1.9,0-4.3,0-7.2
			c0-0.4,0.1-0.7,0.2-1.1c0.1-0.4,0.4-0.6,0.8-0.5h2.5c0.6,0,0.9,0.1,1,0.4c0.1,0.3,0.2,0.7,0.2,1.3v23.9c0,0.7-0.1,1.1-0.2,1.4
			c-0.2,0.3-0.5,0.4-1.1,0.4L164.4,165.3z"/>
		<path id="XMLID_355_" class="st2" d="M189.4,165.2c-0.4,0-0.7-0.1-0.8-0.2c-0.1-0.1-0.3-0.3-0.6-0.6c-2.2-2.7-3.9-4.9-5.1-6.4
			c-1.2-1.6-2.1-2.7-2.6-3.5s-0.9-1.2-1-1.4c-0.1-0.1-0.2-0.2-0.3-0.1l0.1,10.8c0,0.5-0.1,0.9-0.2,1.1c-0.1,0.2-0.5,0.3-1,0.3h-2.4
			c-0.6,0-1-0.1-1.2-0.3s-0.3-0.7-0.3-1.3v-24c0-0.7,0.1-1.1,0.3-1.3s0.6-0.3,1.2-0.3h2.4c0.6,0,1,0.1,1.1,0.2
			c0.1,0.2,0.2,0.6,0.2,1.2v8.5c1.4-1.6,2.8-3.1,4.1-4.6c1.4-1.5,2.7-3.1,4.1-4.6c0.3-0.3,0.6-0.5,0.7-0.6c0.2-0.1,0.4-0.1,0.8-0.1
			h2.9c1.8,0,2.1,0.5,1.1,1.6l-9.8,10.7l10.6,13.4c0.5,0.6,0.6,1,0.4,1.2c-0.2,0.3-0.6,0.4-1.3,0.4L189.4,165.2L189.4,165.2z"/>
	</g>
	<g id="XMLID_15_">
		<path id="XMLID_16_" class="st2" d="M204.8,165.2c-0.1,0.4-0.5,0.6-1.3,0.6h-3c-0.7,0-1.1-0.2-1.4-0.5c-0.2-0.3-0.4-0.7-0.4-1.2
			V162c0-0.4,0.1-0.7,0.3-1.1c0.2-0.3,0.5-0.5,1-0.5h3.2c0.8,0,1.3,0.1,1.5,0.4c0.2,0.3,0.3,0.6,0.3,1v2.1
			C205,164.4,205,164.8,204.8,165.2z"/>
		<path id="XMLID_18_" class="st2" d="M211.6,165.8c-0.6,0-1-0.1-1.1-0.3c-0.2-0.2-0.3-0.6-0.3-1.2v-25c0-0.5,0.1-0.9,0.3-1.1
			c0.2-0.2,0.6-0.3,1.3-0.3h2.4c0.6,0,0.9,0.1,1.1,0.3c0.1,0.2,0.2,0.6,0.2,1.2v25c0,0.5-0.1,0.8-0.2,1c-0.2,0.2-0.5,0.3-1.1,0.3
			h-2.6V165.8z"/>
		<path id="XMLID_22_" class="st2" d="M238.6,165.9c-0.5,0-0.8-0.1-1.1-0.2c-0.3-0.2-0.5-0.5-0.8-0.9L225.6,147v17
			c0,0.7-0.1,1.1-0.2,1.4c-0.2,0.3-0.5,0.4-1.1,0.4H222c-0.3,0-0.6-0.1-0.9-0.2c-0.3-0.1-0.5-0.6-0.5-1.4v-24.6c0-0.1,0-0.2,0-0.4
			s0.1-0.4,0.1-0.6c0.1-0.2,0.2-0.4,0.3-0.5c0.2-0.2,0.4-0.2,0.7-0.2h2.3c0.6,0,1.1,0.1,1.3,0.2c0.2,0.1,0.4,0.3,0.6,0.5
			c0,0,0,0.1,0.1,0.2c0.1,0.1,0.2,0.3,0.4,0.6c0.2,0.4,0.6,0.9,1,1.7c0.5,0.8,1.1,1.8,2,3.2c0.8,1.4,1.9,3.1,3.2,5.2
			c1.3,2.1,2.9,4.6,4.8,7.7c0,0,0-0.1,0-0.2s0-0.3,0-0.6s0-0.8,0-1.6c0-0.7,0-1.7,0-3s0-2.9,0-4.9s0-4.4,0-7.3
			c0-0.4,0.1-0.8,0.2-1.1c0.1-0.4,0.4-0.6,0.9-0.5h2.6c0.6,0,0.9,0.1,1.1,0.4c0.1,0.3,0.2,0.7,0.2,1.3V164c0,0.7-0.1,1.2-0.2,1.5
			c-0.2,0.3-0.5,0.4-1.1,0.4H238.6z"/>
		<path id="XMLID_26_" class="st2" d="M253.4,165.2c-0.1,0.4-0.5,0.6-1.3,0.6h-3c-0.7,0-1.1-0.2-1.4-0.5c-0.2-0.3-0.4-0.7-0.4-1.2
			V162c0-0.4,0.1-0.7,0.3-1.1c0.2-0.3,0.5-0.5,1-0.5h3.2c0.8,0,1.3,0.1,1.5,0.4c0.2,0.3,0.3,0.6,0.3,1v2.1
			C253.5,164.4,253.5,164.8,253.4,165.2z"/>
		<path id="XMLID_28_" class="st2" d="M265.5,142.4c-0.2,0-0.3,0-0.4,0.1c0,0-0.1,0.1-0.1,0.2v21.5c0,0.7-0.1,1.1-0.2,1.4
			c-0.2,0.2-0.6,0.4-1.2,0.4h-2.5c-0.6,0-1-0.1-1.1-0.3s-0.2-0.7-0.2-1.4v-21.5c0-0.1-0.1-0.2-0.4-0.2H253c-0.5,0-0.9-0.1-1.1-0.3
			c-0.2-0.2-0.3-0.4-0.3-0.7v-2.3c0-0.5,0.1-0.8,0.4-0.9c0.2-0.1,0.6-0.2,1.2-0.2h18.3c0.6,0,1,0,1.2,0.1s0.4,0.4,0.4,0.8v2.4
			c0,0.3-0.1,0.6-0.2,0.7c-0.1,0.2-0.5,0.3-1.1,0.3h-6.3V142.4z"/>
		<path id="XMLID_30_" class="st2" d="M293.7,165.8c-0.9,0-1.4-0.5-1.4-1.6v-10.4c0-0.2-0.1-0.3-0.3-0.3h-10c-0.1,0-0.2,0-0.2,0.1
			v10.5c0,0.7-0.1,1.1-0.3,1.3c-0.2,0.2-0.7,0.3-1.3,0.3h-2.3c-0.5,0-0.8-0.1-1-0.4c-0.2-0.3-0.3-0.8-0.3-1.4v-24.5
			c0-0.5,0.1-0.9,0.3-1.1c0.2-0.2,0.5-0.3,1.1-0.3h2.4c0.6,0,1,0.1,1.2,0.4c0.2,0.2,0.3,0.7,0.3,1.4v9.2c0,0.1,0.1,0.2,0.4,0.2h9.9
			c0.1,0,0.2-0.1,0.2-0.2v-9.5c0-0.5,0.1-0.9,0.4-1.1c0.2-0.2,0.6-0.4,1.2-0.4h2.3c0.7,0,1.1,0.1,1.2,0.4c0.1,0.2,0.2,0.6,0.2,1.1
			v24.8c0,0.7-0.1,1.1-0.2,1.3c-0.2,0.2-0.5,0.3-1.1,0.3h-2.7V165.8z"/>
	</g>
</g>
</svg>
