<?xml version="1.0"?>
<svg xmlns="http://www.w3.org/2000/svg" xmlns:xlink="http://www.w3.org/1999/xlink" version="1.1" id="Capa_1" x="0px" y="0px" viewBox="0 0 455.52 455.52" style="enable-background:new 0 0 455.52 455.52;" xml:space="preserve" width="512px" height="512px" class="hovered-paths"><g><g>
	<g>
		<path d="M107.76,231.52h-16c-4.418,0-8,3.582-8,8s3.582,8,8,8h16c4.418,0,8-3.582,8-8S112.178,231.52,107.76,231.52z" data-original="#000000" class="hovered-path active-path" data-old_color="#000000" fill="#0060BE"/>
	</g>
</g><g>
	<g>
		<path d="M107.76,167.52h-16c-4.418,0-8,3.582-8,8s3.582,8,8,8h16c4.418,0,8-3.582,8-8S112.178,167.52,107.76,167.52z" data-original="#000000" class="hovered-path active-path" data-old_color="#000000" fill="#0060BE"/>
	</g>
</g><g>
	<g>
		<path d="M107.76,199.52h-16c-4.418,0-8,3.582-8,8s3.582,8,8,8h16c4.418,0,8-3.582,8-8S112.178,199.52,107.76,199.52z" data-original="#000000" class="hovered-path active-path" data-old_color="#000000" fill="#0060BE"/>
	</g>
</g><g>
	<g>
		<path d="M155.76,231.52h-16c-4.418,0-8,3.582-8,8s3.582,8,8,8h16c4.418,0,8-3.582,8-8S160.178,231.52,155.76,231.52z" data-original="#000000" class="hovered-path active-path" data-old_color="#000000" fill="#0060BE"/>
	</g>
</g><g>
	<g>
		<path d="M371.76,391.52h-16c-4.418,0-8,3.582-8,8s3.582,8,8,8h16c4.418,0,8-3.582,8-8S376.178,391.52,371.76,391.52z" data-original="#000000" class="hovered-path active-path" data-old_color="#000000" fill="#0060BE"/>
	</g>
</g><g>
	<g>
		<path d="M155.76,167.52h-16c-4.418,0-8,3.582-8,8s3.582,8,8,8h16c4.418,0,8-3.582,8-8S160.178,167.52,155.76,167.52z" data-original="#000000" class="hovered-path active-path" data-old_color="#000000" fill="#0060BE"/>
	</g>
</g><g>
	<g>
		<path d="M155.76,199.52h-16c-4.418,0-8,3.582-8,8s3.582,8,8,8h16c4.418,0,8-3.582,8-8S160.178,199.52,155.76,199.52z" data-original="#000000" class="hovered-path active-path" data-old_color="#000000" fill="#0060BE"/>
	</g>
</g><g>
	<g>
		<path d="M203.76,231.52h-16c-4.418,0-8,3.582-8,8s3.582,8,8,8h16c4.418,0,8-3.582,8-8S208.178,231.52,203.76,231.52z" data-original="#000000" class="hovered-path active-path" data-old_color="#000000" fill="#0060BE"/>
	</g>
</g><g>
	<g>
		<path d="M203.76,167.52h-16c-4.418,0-8,3.582-8,8s3.582,8,8,8h16c4.418,0,8-3.582,8-8S208.178,167.52,203.76,167.52z" data-original="#000000" class="hovered-path active-path" data-old_color="#000000" fill="#0060BE"/>
	</g>
</g><g>
	<g>
		<path d="M203.76,199.52h-16c-4.418,0-8,3.582-8,8s3.582,8,8,8h16c4.418,0,8-3.582,8-8S208.178,199.52,203.76,199.52z" data-original="#000000" class="hovered-path active-path" data-old_color="#000000" fill="#0060BE"/>
	</g>
</g><g>
	<g>
		<path d="M251.76,231.52h-16c-4.418,0-8,3.582-8,8s3.582,8,8,8h16c4.418,0,8-3.582,8-8S256.178,231.52,251.76,231.52z" data-original="#000000" class="hovered-path active-path" data-old_color="#000000" fill="#0060BE"/>
	</g>
</g><g>
	<g>
		<path d="M251.76,167.52h-16c-4.418,0-8,3.582-8,8s3.582,8,8,8h16c4.418,0,8-3.582,8-8S256.178,167.52,251.76,167.52z" data-original="#000000" class="hovered-path active-path" data-old_color="#000000" fill="#0060BE"/>
	</g>
</g><g>
	<g>
		<path d="M251.76,199.52h-16c-4.418,0-8,3.582-8,8s3.582,8,8,8h16c4.418,0,8-3.582,8-8S256.178,199.52,251.76,199.52z" data-original="#000000" class="hovered-path active-path" data-old_color="#000000" fill="#0060BE"/>
	</g>
</g><g>
	<g>
		<path d="M203.76,391.52h-16c-4.418,0-8,3.582-8,8s3.582,8,8,8h16c4.418,0,8-3.582,8-8S208.178,391.52,203.76,391.52z" data-original="#000000" class="hovered-path active-path" data-old_color="#000000" fill="#0060BE"/>
	</g>
</g><g>
	<g>
		<path d="M203.76,327.52h-16c-4.418,0-8,3.582-8,8s3.582,8,8,8h16c4.418,0,8-3.582,8-8S208.178,327.52,203.76,327.52z" data-original="#000000" class="hovered-path active-path" data-old_color="#000000" fill="#0060BE"/>
	</g>
</g><g>
	<g>
		<path d="M203.76,359.52h-16c-4.418,0-8,3.582-8,8s3.582,8,8,8h16c4.418,0,8-3.582,8-8S208.178,359.52,203.76,359.52z" data-original="#000000" class="hovered-path active-path" data-old_color="#000000" fill="#0060BE"/>
	</g>
</g><g>
	<g>
		<path d="M251.76,391.52h-16c-4.418,0-8,3.582-8,8s3.582,8,8,8h16c4.418,0,8-3.582,8-8S256.178,391.52,251.76,391.52z" data-original="#000000" class="hovered-path active-path" data-old_color="#000000" fill="#0060BE"/>
	</g>
</g><g>
	<g>
		<path d="M251.76,327.52h-16c-4.418,0-8,3.582-8,8s3.582,8,8,8h16c4.418,0,8-3.582,8-8S256.178,327.52,251.76,327.52z" data-original="#000000" class="hovered-path active-path" data-old_color="#000000" fill="#0060BE"/>
	</g>
</g><g>
	<g>
		<path d="M107.76,327.52h-16c-4.418,0-8,3.582-8,8s3.582,8,8,8h16c4.418,0,8-3.582,8-8S112.178,327.52,107.76,327.52z" data-original="#000000" class="hovered-path active-path" data-old_color="#000000" fill="#0060BE"/>
	</g>
</g><g>
	<g>
		<path d="M155.76,327.52h-16c-4.418,0-8,3.582-8,8s3.582,8,8,8h16c4.418,0,8-3.582,8-8S160.178,327.52,155.76,327.52z" data-original="#000000" class="hovered-path active-path" data-old_color="#000000" fill="#0060BE"/>
	</g>
</g><g>
	<g>
		<path d="M251.76,359.52h-16c-4.418,0-8,3.582-8,8s3.582,8,8,8h16c4.418,0,8-3.582,8-8S256.178,359.52,251.76,359.52z" data-original="#000000" class="hovered-path active-path" data-old_color="#000000" fill="#0060BE"/>
	</g>
</g><g>
	<g>
		<path d="M355.76,295.52h-16c-4.418,0-8,3.582-8,8s3.582,8,8,8h16c4.418,0,8-3.582,8-8S360.178,295.52,355.76,295.52z" data-original="#000000" class="hovered-path active-path" data-old_color="#000000" fill="#0060BE"/>
	</g>
</g><g>
	<g>
		<path d="M355.76,263.52h-16c-4.418,0-8,3.582-8,8s3.582,8,8,8h16c4.418,0,8-3.582,8-8S360.178,263.52,355.76,263.52z" data-original="#000000" class="hovered-path active-path" data-old_color="#000000" fill="#0060BE"/>
	</g>
</g><g>
	<g>
		<path d="M267.76,279.52h-32c-4.418,0-8,3.582-8,8s3.582,8,8,8h32c4.418,0,8-3.582,8-8S272.178,279.52,267.76,279.52z" data-original="#000000" class="hovered-path active-path" data-old_color="#000000" fill="#0060BE"/>
	</g>
</g><g>
	<g>
		<path d="M443.76,439.52h-24v-192h8c4.418,0,8-3.582,8-8s-3.582-8-8-8h-72v-16c0-8.837-7.163-16-16-16h-32v-49.44    c12.458-4.528,18.886-18.297,14.358-30.755c-2.857-7.861-9.6-13.667-17.798-15.326L279.2,66.24    c-4.45-6.698-11.958-10.723-20-10.72h-95.44V48c0-4.418-3.582-8-8-8s-8,3.582-8,8v7.52h-16V8c0-4.418-3.582-8-8-8s-8,3.582-8,8    v47.52H84.32c-8.042-0.003-15.55,4.022-20,10.72L39.12,104c-12.986,2.656-21.36,15.337-18.704,28.323    c1.674,8.187,7.487,14.913,15.344,17.757v289.44h-24c-4.418,0-8,3.582-8,8s3.582,8,8,8h432c4.418,0,8-3.582,8-8    S448.178,439.52,443.76,439.52z M77.68,75.12c1.472-2.235,3.964-3.586,6.64-3.6h31.44V88c0,4.418,3.582,8,8,8s8-3.582,8-8V71.52    h16V88c0,4.418,3.582,8,8,8s8-3.582,8-8V71.52h95.44c2.676,0.014,5.168,1.365,6.64,3.6l18.96,28.4H58.72L77.68,75.12z     M147.76,439.52h-48v-48h48V439.52z M291.76,439.52h-128v-48c0-8.837-7.163-16-16-16h-48c-8.837,0-16,7.163-16,16v48h-32v-144h152    c4.418,0,8-3.582,8-8s-3.582-8-8-8h-152v-128h240V439.52z M299.76,135.52h-256c-4.418,0-8-3.582-8-8s3.582-8,8-8h256    c4.418,0,8,3.582,8,8S304.178,135.52,299.76,135.52z M403.76,343.52h-80c-4.418,0-8,3.582-8,8s3.582,8,8,8h80v80h-96v-224h32v24    c0,4.418,3.582,8,8,8h56V343.52z" data-original="#000000" class="hovered-path active-path" data-old_color="#000000" fill="#0060BE"/>
	</g>
</g></g> </svg>
