<svg id="Capa_1" enable-background="new 0 0 512 512" height="512" viewBox="0 0 512 512" width="512" xmlns="http://www.w3.org/2000/svg"><g><path d="m440.009 143.165c.659-4.366.991-8.761.991-13.165 0-49.626-40.374-90-90-90-7.293 0-14.462.861-21.434 2.569-14.996-25.937-43.009-42.569-73.566-42.569s-58.57 16.632-73.566 42.569c-6.972-1.708-14.141-2.569-21.434-2.569-49.626 0-90 40.374-90 90 0 4.404.332 8.799.991 13.165-40.961 10.716-70.991 48.145-70.991 91.835 0 52.383 42.617 95 95 95 10.576 0 21.13-1.8 31.119-5.267 15.811 22.047 41.116 35.267 68.881 35.267 1.656 0 3.315-.06 4.972-.16.007.627.028 1.254.028 1.881v3.168c0 41.554-11.456 81.872-33.198 117.111h-51.802c-8.284 0-15 6.716-15 15s6.716 15 15 15h280c8.284 0 15-6.716 15-15s-6.716-15-15-15h-51.802c-21.742-35.239-33.198-75.557-33.198-117.111v-3.168c0-.627.021-1.254.028-1.881 1.657.1 3.316.16 4.972.16 27.765 0 53.07-13.22 68.882-35.267 9.988 3.467 20.542 5.267 31.118 5.267 52.383 0 95-42.617 95-95 0-43.69-30.03-81.119-70.991-91.835zm-237.71 338.835c18.845-36.053 28.701-76.048 28.701-117.111v-3.168c0-23.699-4.204-47.419-12.273-69.721h74.547c-8.07 22.302-12.274 46.022-12.274 69.721v3.168c0 41.063 9.856 81.058 28.701 117.111zm213.701-182c-10.627 0-20.793-2.517-30.216-7.481-3.586-1.889-7.78-2.247-11.633-.993-3.853 1.253-7.034 4.012-8.821 7.649-9.343 19.013-28.245 30.825-49.33 30.825-.681 0-1.363-.016-2.045-.043 2.837-15.274 7.698-30.172 14.449-44.148l58.202-58.202c5.858-5.858 5.858-15.355 0-21.213-5.857-5.858-15.355-5.858-21.213 0l-55.606 55.606h-38.787v-105c0-8.284-6.716-15-15-15s-15 6.716-15 15v105h-38.787l-55.606-55.606c-5.857-5.858-15.355-5.858-21.213 0s-5.858 15.355 0 21.213l58.202 58.202c6.751 13.976 11.612 28.875 14.449 44.148-.682.027-1.364.043-2.045.043-21.086 0-39.987-11.812-49.329-30.825-1.787-3.636-4.968-6.395-8.82-7.649-3.854-1.254-8.049-.895-11.634.992-9.424 4.965-19.591 7.482-30.217 7.482-35.841 0-65-29.159-65-65 0-33.982 26.569-62.426 60.489-64.756 4.688-.322 8.955-2.823 11.527-6.757 2.571-3.934 3.15-8.846 1.564-13.271-2.375-6.626-3.58-13.427-3.58-20.216 0-33.084 26.916-60 60-60 8.136 0 16.028 1.602 23.458 4.762 3.784 1.609 8.062 1.595 11.832-.04 3.772-1.634 6.709-4.745 8.123-8.604 7.913-21.603 28.645-36.118 51.587-36.118s43.674 14.515 51.587 36.118c1.414 3.86 4.351 6.97 8.123 8.604s8.052 1.648 11.832.04c7.43-3.16 15.322-4.762 23.458-4.762 33.084 0 60 26.916 60 60 0 6.789-1.205 13.59-3.581 20.216-1.586 4.424-1.007 9.336 1.564 13.271 2.572 3.934 6.839 6.435 11.527 6.757 33.921 2.33 60.49 30.774 60.49 64.756 0 35.841-29.159 65-65 65z"/></g></svg>