<?xml version="1.0" encoding="iso-8859-1"?>
<!-- Generator: Adobe Illustrator 19.0.0, SVG Export Plug-In . SVG Version: 6.00 Build 0)  -->
<svg version="1.1" id="Capa_1" xmlns="http://www.w3.org/2000/svg" xmlns:xlink="http://www.w3.org/1999/xlink" x="0px" y="0px"
	 viewBox="0 0 512 512" style="enable-background:new 0 0 512 512;" xml:space="preserve">
<g>
	<g>
		<path d="M5.288,0v512h501.425V0H5.288z M35.288,30h441.424v211h-122.94c16.556-3.62,29.579-16.796,32.958-33.441l37.05,0.004
			l0.007-53.001c0.001-11.585-4.509-22.477-12.699-30.669c-8.191-8.192-19.081-12.705-30.666-12.706l-5.577-0.001L345.45,50.018
			L183.539,50l-38.051,61.16l-24.46-0.002c-0.003,0-0.003,0-0.006,0c-23.91,0-43.367,19.453-43.37,43.365l-0.006,53l39.871,0.005
			c3.382,16.679,16.446,29.879,33.049,33.472H35.288V30z M380.419,141.187c3.571,0,6.93,1.392,9.454,3.917
			c2.525,2.525,3.915,5.883,3.915,9.454l-0.003,23.001l-11.939-0.001c-7.437-12.881-21.348-21.576-37.26-21.578
			c-0.003,0-0.003,0-0.006,0c-17.729,0-32.986,10.787-39.559,26.142l-105.787-0.012c-6.569-15.358-21.825-26.149-39.559-26.151
			c-0.002,0-0.004,0-0.006,0c-11.486,0-22.286,4.473-30.408,12.594c-2.716,2.716-5.014,5.736-6.884,8.976l-14.726-0.002l0.002-23
			c0.001-7.372,5.999-13.369,13.371-13.369L380.419,141.187z M180.817,111.167l19.389-31.164l49.136,0.005l-0.004,31.166
			L180.817,111.167z M279.338,111.177l0.004-31.167l47.239,0.006l14.978,31.168L279.338,111.177z M150.471,189.769
			c2.458-2.457,5.724-3.81,9.198-3.81c0.001,0,0.002,0,0.002,0c7.174,0.001,13.009,5.838,13.008,13.011
			c-0.001,7.174-5.838,13.009-13.011,13.009c-7.174-0.001-13.009-5.838-13.008-13.012
			C146.661,195.492,148.014,192.226,150.471,189.769z M200.617,212.111l103.011,0.011c4.647,14.457,16.749,25.596,31.76,28.878
			H168.771C183.82,237.743,195.958,226.592,200.617,212.111z M331.57,198.988c0-3.475,1.354-6.741,3.811-9.198
			c2.457-2.457,5.724-3.809,9.197-3.809c0.001,0,0.002,0,0.002,0c7.174,0.001,13.009,5.838,13.009,13.012
			c-0.001,3.474-1.354,6.741-3.811,9.197c-2.457,2.457-5.724,3.809-9.197,3.809c-0.001,0-0.002,0-0.002,0
			C337.406,211.998,331.57,206.161,331.57,198.988z M159.667,453.558c-3.475,0-6.741-1.354-9.198-3.811
			c-2.457-2.458-3.81-5.725-3.81-9.2c0.001-3.476,1.354-6.743,3.811-9.199c2.458-2.457,5.724-3.81,9.198-3.81
			c0.001,0,0.002,0,0.002,0c3.475,0,6.741,1.355,9.198,3.812c2.457,2.458,3.81,5.725,3.81,9.199
			C172.677,447.723,166.841,453.558,159.667,453.558z M380.419,382.766c3.571,0,6.93,1.392,9.454,3.917
			c2.525,2.525,3.915,5.883,3.915,9.454l-0.003,23.001l-11.939-0.001c-7.437-12.881-21.348-21.576-37.26-21.578
			c-0.003,0-0.003,0-0.006,0c-17.729,0-32.986,10.787-39.559,26.142l-105.787-0.012c-6.569-15.358-21.825-26.149-39.559-26.151
			c-0.002,0-0.004,0-0.006,0c-11.486,0-22.286,4.473-30.408,12.594c-2.716,2.716-5.014,5.736-6.884,8.976l-14.726-0.002l0.002-23
			c0.001-7.372,5.999-13.369,13.371-13.369L380.419,382.766z M180.817,352.746l19.389-31.164l49.136,0.005l-0.004,31.166
			L180.817,352.746z M279.338,352.756l0.004-31.167l47.239,0.006l14.978,31.168L279.338,352.756z M171.111,482
			c13.96-3.859,25.092-14.588,29.507-28.31l103.011,0.011c4.405,13.703,15.507,24.422,29.437,28.299H171.111z M344.582,453.578
			c-0.001,0-0.002,0-0.002,0c-7.174-0.001-13.01-5.838-13.009-13.011c0.001-7.173,5.837-13.008,13.009-13.008
			c0.001,0,0.002,0,0.002,0c7.174,0.001,13.009,5.838,13.009,13.011c-0.001,3.475-1.354,6.742-3.811,9.198
			C351.322,452.226,348.055,453.578,344.582,453.578z M476.713,482H356.096c15.441-4.298,27.415-17.004,30.635-32.862l37.05,0.004
			l0.007-53.001c0.001-11.585-4.509-22.477-12.699-30.669c-8.191-8.192-19.081-12.705-30.666-12.706l-5.577-0.001l-29.396-61.169
			l-161.91-0.018l-38.051,61.16l-24.46-0.002c-0.003,0-0.003,0-0.006,0c-23.91,0-43.367,19.453-43.37,43.365l-0.006,53l39.871,0.005
			c3.221,15.887,15.228,28.613,30.709,32.892H35.288V271h441.425V482z"/>
	</g>
</g>
<g>
</g>
<g>
</g>
<g>
</g>
<g>
</g>
<g>
</g>
<g>
</g>
<g>
</g>
<g>
</g>
<g>
</g>
<g>
</g>
<g>
</g>
<g>
</g>
<g>
</g>
<g>
</g>
<g>
</g>
</svg>
